<?xml version="1.0" encoding="UTF-8" standalone="no"?>
<!-- Created with Inkscape (http://www.inkscape.org/) -->

<svg
   width="207.92924mm"
   height="223.15514mm"
   viewBox="0 0 207.92924 223.15514"
   version="1.1"
   id="svg1"
   xml:space="preserve"
   inkscape:version="1.3.2 (1:1.3.2+202311252150+091e20ef0f)"
   sodipodi:docname="Kafo_n&amp;b.svg"
   xmlns:inkscape="http://www.inkscape.org/namespaces/inkscape"
   xmlns:sodipodi="http://sodipodi.sourceforge.net/DTD/sodipodi-0.dtd"
   xmlns="http://www.w3.org/2000/svg"
   xmlns:svg="http://www.w3.org/2000/svg"><sodipodi:namedview
     id="namedview1"
     pagecolor="#ffffff"
     bordercolor="#000000"
     borderopacity="0.25"
     inkscape:showpageshadow="2"
     inkscape:pageopacity="0.0"
     inkscape:pagecheckerboard="0"
     inkscape:deskcolor="#d1d1d1"
     inkscape:document-units="mm"
     inkscape:zoom="0.37772166"
     inkscape:cx="308.42817"
     inkscape:cy="90.013371"
     inkscape:window-width="1904"
     inkscape:window-height="1008"
     inkscape:window-x="26"
     inkscape:window-y="23"
     inkscape:window-maximized="0"
     inkscape:current-layer="layer1" /><defs
     id="defs1" /><g
     inkscape:label="Layer 1"
     inkscape:groupmode="layer"
     id="layer1"
     transform="translate(-1.3173555,-41.633897)"><path
       id="path1"
       style="fill:#000000;fill-opacity:1;stroke-width:0.535865"
       d="M 121.90654,41.785273 C 85.242784,44.052418 48.195493,67.400552 24.719928,103.03472 -11.57038,158.1205 -4.9206403,225.27811 39.572541,253.03548 c 5.599737,3.39481 11.647051,6.06584 18.045455,7.97048 3.235857,-5.78755 34.420125,-61.08121 31.036509,-107.78902 C 85.020879,103.05789 158.05715,55.636921 165.84155,50.899105 152.81743,44.005413 137.77774,40.885596 121.90654,41.785273 Z m 44.5105,9.410433 c -4.76061,6.275223 -56.06647,59.941284 -51.49915,101.338884 4.74948,43.04862 -50.893647,103.59353 -56.807414,108.63116 43.556874,13.2544 96.738684,-10.73275 127.733554,-57.613 36.2903,-55.08578 29.64057,-122.243385 -14.85261,-150.000754 -1.49519,-0.83529 -3.02054,-1.621006 -4.57438,-2.35629 z"
       sodipodi:nodetypes="ccccscccscccc" /></g></svg>
